<?xml version="1.0" encoding="UTF-8"?>
<svg id="Layer_1" data-name="Layer 1" xmlns="http://www.w3.org/2000/svg" viewBox="0 0 16 16">
  <defs>
    <style>
      .cls-1 {
        fill: #c8da2c;
      }

      .cls-1, .cls-2, .cls-3, .cls-4 {
        stroke-width: 0px;
      }

      .cls-2 {
        fill: #321e40;
      }

      .cls-3 {
        fill: #ee3451;
      }

      .cls-4 {
        fill: #fff;
      }
    </style>
  </defs>
  <rect class="cls-4" width="16" height="16"/>
  <g>
    <g>
      <path class="cls-4" d="M10.04,2.44c0,1.11-.9,2.01-2.01,2.01s-2.01-.9-2.01-2.01S6.92.44,8.03.44s2.01.9,2.01,2.01Z"/>
      <path class="cls-2" d="M8.03,4.76c-1.28,0-2.31-1.04-2.31-2.31S6.75.13,8.03.13s2.31,1.04,2.31,2.31-1.04,2.31-2.31,2.31ZM8.03.74c-.94,0-1.7.76-1.7,1.7s.76,1.7,1.7,1.7,1.7-.76,1.7-1.7-.76-1.7-1.7-1.7Z"/>
    </g>
    <g>
      <g>
        <path class="cls-3" d="M12.54,8.02c.39,1.84,0,7.54,0,7.54l-4.54-2.41,2.4-1.28-2.37-7.42s-.01,0-.03,0c.36-.03,3.75-.18,4.54,3.58Z"/>
        <path class="cls-1" d="M8.03,4.45l2.37,7.42-2.4,1.28-2.4-1.28,2.37-7.42s.01,0,.03,0c.02,0,.03,0,.03,0Z"/>
        <path class="cls-3" d="M8,13.15l-4.54,2.41s-.39-5.69,0-7.54c.79-3.75,4.18-3.6,4.54-3.58-.02,0-.03,0-.03,0l-2.37,7.42,2.4,1.28Z"/>
      </g>
      <g>
        <path class="cls-2" d="M3.46,15.87c-.05,0-.1-.01-.15-.04-.09-.05-.15-.14-.16-.25-.02-.23-.39-5.76,0-7.62.44-2.09,1.66-3.02,2.61-3.43,1.06-.46,2.06-.41,2.26-.39.03,0,.04,0,.04,0,.12.01.23.1.26.21l2.37,7.42c.05.14-.02.3-.15.37l-6.94,3.69s-.09.04-.14.04ZM7.75,4.75c-.82,0-3.34.26-3.98,3.34-.31,1.48-.11,5.58-.02,6.98l4.12-2.19h0l2.18-1.16-2.23-6.97s-.04,0-.06,0Z"/>
        <path class="cls-2" d="M12.54,15.87s-.1-.01-.14-.04l-6.94-3.69c-.13-.07-.19-.22-.15-.37l2.37-7.42c.04-.12.14-.2.26-.21,0,0,.01,0,.04,0,.19-.01,1.2-.06,2.26.39.95.41,2.17,1.34,2.61,3.43.39,1.87.02,7.39,0,7.62,0,.1-.07.2-.16.25-.05.03-.1.04-.15.04ZM5.97,11.72l2.18,1.16h0l4.12,2.19c.08-1.4.29-5.5-.02-6.98-.66-3.16-3.28-3.35-4.04-3.34l-2.23,6.97Z"/>
      </g>
    </g>
  </g>
</svg>