<?xml version="1.0" encoding="UTF-8" standalone="no"?>
<svg
   width="42.264mm"
   height="38.918mm"
   version="1.1"
   viewBox="0 0 42.264 38.918"
   id="svg66"
   sodipodi:docname="DiaLogoBlack.svg"
   inkscape:version="1.1.2 (b8e25be833, 2022-02-05)"
   xmlns:inkscape="http://www.inkscape.org/namespaces/inkscape"
   xmlns:sodipodi="http://sodipodi.sourceforge.net/DTD/sodipodi-0.dtd"
   xmlns="http://www.w3.org/2000/svg"
   xmlns:svg="http://www.w3.org/2000/svg">
  <defs
     id="defs70" />
  <sodipodi:namedview
     id="namedview68"
     pagecolor="#ffffff"
     bordercolor="#666666"
     borderopacity="1.0"
     inkscape:pageshadow="2"
     inkscape:pageopacity="0.0"
     inkscape:pagecheckerboard="0"
     inkscape:document-units="mm"
     showgrid="false"
     inkscape:zoom="5.4931738"
     inkscape:cx="79.826348"
     inkscape:cy="73.636847"
     inkscape:window-width="1920"
     inkscape:window-height="1001"
     inkscape:window-x="-9"
     inkscape:window-y="-9"
     inkscape:window-maximized="1"
     inkscape:current-layer="svg66" />
  <g
     transform="translate(-85.223 -118.09)"
     display="none"
     id="g10">
    <path
       d="m27.503 173.01v-6.491h-12.954v-12.954h12.954v-12.982l8.2479 0.0777c9.2126 0.0868 9.3322 0.10197 12.296 1.5617 2.6816 1.3208 5.1383 3.9109 6.5349 6.8898 1.7707 3.7768 2.5526 8.7854 2.1091 13.51-0.83226 8.8682-4.7351 14.436-11.478 16.374-1.0373 0.29813-2.4176 0.36038-9.4623 0.42675l-8.2479 0.0777zm12.954-12.968v-6.4769h-12.954v12.954h12.954zm63.263 11.035c-3.3101-0.94494-5.0605-4.461-4.6874-9.4158 0.20486-2.7208 0.9465-4.6437 2.2793-5.9094 2.0929-1.9876 6.2213-1.9969 7.7479-0.0173 0.23884 0.3097 0.60948 0.79079 0.82364 1.0691l0.38938 0.50601 7e-3 -1.3744 7e-3 -1.3744 3.3396 0.1176v16.192l-1.6698 0.0588-1.6698 0.0587-0.014-2.7488-0.38938 0.50601c-0.21416 0.2783-0.57578 0.7485-0.80361 1.0449-0.93993 1.2228-3.4624 1.8284-5.3598 1.2868zm4.3548-2.9673c0.42366-0.12693 1.0718-0.54185 1.4403-0.92205l0.67-0.69127v-3.6826c0-3.3631-0.0351-3.7306-0.4048-4.2363-0.61191-0.83692-1.8594-1.3692-3.2092-1.3692-1.485 0-2.5837 0.54937-3.3181 1.659-0.54596 0.82501-0.55683 0.90127-0.55683 3.907 0 3.0229 8e-3 3.0776 0.56999 3.9269 0.94949 1.4348 2.8564 1.9933 4.8086 1.4084zm14.409 2.9854c-2.6614-0.66917-4.2763-2.8816-4.7432-6.4984-0.80077-6.2034 2.2501-10.837 6.8243-10.365 1.7059 0.17606 3.0641 1.073 4.0771 2.6926 0.19078 0.30497 0.24359-0.6181 0.25301-4.4216l0.0119-4.8071h3.4442l-0.0523 11.588-0.0522 11.588-1.6604 0.0587-1.6604 0.0586-0.06-1.3261-0.0601-1.3261-0.70841 0.96384c-1.2173 1.6562-3.3962 2.3531-5.6136 1.7956zm4.8907-3.2774c1.3555-0.70344 1.5326-1.2978 1.5317-5.1413-6e-4 -2.9262-0.0487-3.4213-0.38502-3.973-0.54808-0.89882-1.8976-1.4958-3.372-1.4917-1.6915 5e-3 -2.6522 0.57548-3.3769 2.0064-0.51631 1.0193-0.55661 1.2768-0.55661 3.5564 0 2.2813 0.0399 2.5356 0.55661 3.5488 0.75356 1.4775 1.851 2.0804 3.5968 1.9758 0.69578-0.0417 1.5561-0.24821 2.0055-0.4814zm25.618 3.2435c-1.8279-0.50631-2.8706-1.3959-3.789-3.2328-1.1758-2.3517-1.3255-6.403-0.34486-9.3328 0.52644-1.5727 1.7108-2.9825 3.0638-3.6469 1.5363-0.75437 3.7458-0.81007 5.036-0.12696 0.81887 0.43355 2.1061 1.7102 2.1061 2.0889 0 0.10745 0.0911 0.19537 0.2024 0.19537 0.11244 0 0.2024-0.53975 0.2024-1.2144v-1.2144h3.4408v16.395h-3.4408v-1.2144c0-0.67467-0.09-1.2144-0.2024-1.2144-0.11132 0-0.2024 0.0879-0.2024 0.19536 0 0.10745-0.29602 0.5325-0.65781 0.94457-1.2215 1.3912-3.382 1.9412-5.4143 1.3783zm5.1205-3.3026c1.1832-0.73128 1.3564-1.3718 1.3561-5.0147-1.9e-4 -2.6485-0.062-3.3314-0.3542-3.9163-0.80991-1.6213-3.7527-2.1733-5.5407-1.0393-1.3774 0.87353-1.68 1.6592-1.7631 4.5775-0.0982 3.4514 0.36907 4.7067 2.077 5.5791 1.0861 0.55479 3.1747 0.46263 4.2249-0.18642zm-87.81 2.9602c-0.05327-0.13915-0.07319-5.0803-0.04425-10.98l0.05262-10.727 4.7565 4e-3c4.3355 4e-3 4.8818 0.0437 6.1733 0.45085 2.5699 0.81028 4.5108 2.7984 5.3638 5.4942 1.1824 3.7369 0.84809 8.9737-0.7491 11.736-1.2312 2.1292-3.074 3.4706-5.4631 3.9768-1.8352 0.38885-9.9443 0.42583-10.09 0.046zm10.46-3.5509c1.3155-0.68514 2.2819-2.0334 2.618-3.6523 0.13812-0.66532 0.19688-2.3602 0.14779-4.2624-0.09164-3.5505-0.33888-4.3806-1.7145-5.7562-1.0835-1.0835-2.1184-1.3486-5.2641-1.3486h-2.6964v15.585h2.9117c2.7935 0 2.9558-0.023 3.9975-0.56548zm10.902-4.3934v-8.1973h3.2384v16.395h-3.2384zm45.589 0.0506 0.0529-8.1467 3.3396-0.1176 0.0119 1.5768c0.01 1.2997 0.0542 1.5103 0.253 1.1982 0.1326-0.20823 0.42679-0.66364 0.65374-1.012 0.63183-0.96986 1.8901-1.5688 3.383-1.6103l1.2645-0.0351v3.036l-1.4326 0.12806c-2.0788 0.18583-2.5726 0.3294-3.3424 0.97173l-0.68996 0.57575-0.119 11.582h-3.4277zm33.222 7.5901c-0.0737-0.30614-0.71841-2.697-1.4327-5.3131-1.4819-5.4275-2.6258-9.6758-2.725-10.12-0.0558-0.25022 0.21699-0.30361 1.5515-0.30361h1.6192l0.75326 3.036c0.41428 1.6698 1.0842 4.4478 1.4886 6.1733 0.40444 1.7255 0.80332 3.2611 0.88642 3.4124 0.0905 0.1649 0.49708-0.97081 1.0143-2.8336 0.47478-1.7099 1.2929-4.6117 1.8181-6.4485l0.95485-3.3396h3.1601l0.67161 2.3276c0.36938 1.2802 1.1956 4.171 1.836 6.4241 0.64039 2.253 1.2268 4.0291 1.3032 3.9468 0.0764-0.0823 0.42696-1.4247 0.77903-2.9832s1.0258-4.382 1.4971-6.2745l0.857-3.4408 1.5597-0.0591c0.85784-0.0325 1.5597-5e-3 1.5597 0.0615 0 0.11416-0.75887 2.9816-2.3562 8.9033-0.39038 1.4472-0.96777 3.6053-1.2831 4.7958-0.31533 1.1905-0.63275 2.2607-0.70537 2.3782-0.0772 0.12488-0.90493 0.21355-1.9923 0.21342l-1.8603-2e-4 -1.7109-5.9701c-0.94099-3.2835-1.771-5.902-1.8445-5.8188-0.0734 0.0832-0.61024 1.8362-1.1928 3.8956-0.5826 2.0594-1.342 4.678-1.6875 5.8191l-0.62821 2.0746h-3.7569l-0.13399-0.55661z"
       stroke-width=".2024"
       id="path2" />
    <rect
       x="91.156"
       y="147.28"
       width="4.1257"
       height="4.2997"
       ry="1.6901"
       fill-rule="evenodd"
       stroke-width=".2024"
       id="rect4" />
    <text
       x="23.355339"
       y="214.24323"
       fill="#000000"
       font-family="sans-serif"
       font-size="10.583px"
       stroke-width=".26458"
       style="line-height:1.25"
       xml:space="preserve"
       id="text8"><tspan
         x="23.355339"
         y="214.24323"
         stroke-width=".26458"
         id="tspan6">Diadraw outsource and grow.</tspan></text>
  </g>
  <g
     transform="translate(-85.223 -118.09)"
     display="none"
     id="g20">
    <text
       transform="scale(1.0144 .98581)"
       x="13.521272"
       y="212.25598"
       fill="#000000"
       font-family="sans-serif"
       font-size="17.177px"
       stroke-width=".26839"
       style="line-height:1.25"
       xml:space="preserve"
       id="text14"><tspan
         x="13.521272"
         y="212.25598"
         font-size="17.177px"
         stroke-width=".26839"
         id="tspan12">Outsource and grow</tspan></text>
    <path
       d="m27.503 173.01v-6.491h-12.954v-12.954h12.954v-12.982l8.2479 0.0777c9.2126 0.0868 9.3322 0.10197 12.296 1.5617 2.6816 1.3208 5.1383 3.9109 6.5349 6.8898 1.7707 3.7768 2.5526 8.7854 2.1091 13.51-0.83226 8.8682-4.7351 14.436-11.478 16.374-1.0373 0.29813-2.4176 0.36038-9.4623 0.42675l-8.2479 0.0777zm12.954-12.968v-6.4769h-12.954v12.954h12.954zm63.263 11.035c-3.3101-0.94494-5.0605-4.461-4.6874-9.4158 0.20486-2.7208 0.9465-4.6437 2.2793-5.9094 2.0929-1.9876 6.2213-1.9969 7.7479-0.0173 0.23884 0.3097 0.60948 0.79079 0.82364 1.0691l0.38938 0.50601 7e-3 -1.3744 7e-3 -1.3744 1.6698 0.0101 1.6536 0.0425 0.0162 8.1611v8.0961l-1.6698 0.0588-1.6698 0.0587-0.014-2.7488-0.38938 0.50601c-0.21416 0.2783-0.57578 0.7485-0.80361 1.0449-0.93993 1.2228-3.4624 1.8284-5.3598 1.2868zm4.3548-2.9673c0.42366-0.12693 1.0718-0.54185 1.4403-0.92205l0.67-0.69127v-3.6826c0-3.3631-0.0351-3.7306-0.4048-4.2363-0.61191-0.83692-1.8594-1.3692-3.2092-1.3692-1.485 0-2.5837 0.54937-3.3181 1.659-0.54596 0.82501-0.55683 0.90127-0.55683 3.907 0 3.0229 8e-3 3.0776 0.56999 3.9269 0.94949 1.4348 2.8564 1.9933 4.8086 1.4084zm14.409 2.9854c-2.6614-0.66917-4.2763-2.8816-4.7432-6.4984-0.80077-6.2034 2.2501-10.837 6.8243-10.365 1.7059 0.17606 3.0641 1.073 4.0771 2.6926 0.19078 0.30497 0.24359-0.6181 0.25301-4.4216l0.0119-4.8071h3.4442l-0.0523 11.588-0.0522 11.588-1.6604 0.0587-1.6604 0.0586-0.06-1.3261-0.0601-1.3261-0.70841 0.96384c-1.2173 1.6562-3.3962 2.3531-5.6136 1.7956zm4.8907-3.2774c1.3555-0.70344 1.5326-1.2978 1.5317-5.1413-6e-4 -2.9262-0.0487-3.4213-0.38502-3.973-0.54808-0.89882-1.8976-1.4958-3.372-1.4917-1.6915 5e-3 -2.6522 0.57548-3.3769 2.0064-0.51631 1.0193-0.55661 1.2768-0.55661 3.5564 0 2.2813 0.0399 2.5356 0.55661 3.5488 0.75356 1.4775 1.851 2.0804 3.5968 1.9758 0.69578-0.0417 1.5561-0.24821 2.0055-0.4814zm25.618 3.2435c-1.8279-0.50631-2.8706-1.3959-3.789-3.2328-1.1758-2.3517-1.3255-6.403-0.34486-9.3328 0.52644-1.5727 1.7108-2.9825 3.0638-3.6469 1.5363-0.75437 3.7458-0.81007 5.036-0.12696 0.81887 0.43355 2.0434 1.7378 2.2324 2.0659 0.11487 0.19934 0.2943 0.26429 0.2943 0.26429s-0.0159-0.5857-0.0159-1.2604v-1.2144h3.4408v16.395h-3.4408v-1.2144c0-0.67467-0.0237-1.255-0.0237-1.255s-0.78548 0.88604-1.0389 1.1805c-1.2215 1.3912-3.382 1.9412-5.4143 1.3783zm5.1205-3.3026c1.1832-0.73128 1.3564-1.3718 1.3561-5.0147-1.9e-4 -2.6485-0.062-3.3314-0.3542-3.9163-0.80991-1.6213-3.7527-2.1733-5.5407-1.0393-1.3774 0.87353-1.68 1.6592-1.7631 4.5775-0.0982 3.4514 0.36907 4.7067 2.077 5.5791 1.0861 0.55479 3.1747 0.46263 4.2249-0.18642zm-87.81 2.9602s-0.07319-5.0803-0.04425-10.98l0.05262-10.727 4.7565 4e-3c4.3355 4e-3 4.8818 0.0437 6.1733 0.45085 2.5699 0.81028 4.5108 2.7984 5.3638 5.4942 1.1824 3.7369 0.84809 8.9737-0.7491 11.736-1.2312 2.1292-3.074 3.4706-5.4631 3.9768-0.91622 0.21655-10.09 0.046-10.09 0.046zm10.46-3.5509c1.3155-0.68514 2.2819-2.0334 2.618-3.6523 0.13812-0.66532 0.19688-2.3602 0.14779-4.2624-0.09164-3.5505-0.33888-4.3806-1.7145-5.7562-1.0835-1.0835-2.1184-1.3486-5.2641-1.3486h-2.6964v15.585h2.9117c2.7935 0 2.9558-0.023 3.9975-0.56548zm10.902-4.3934v-8.1973h3.2384v16.395h-3.2384zm45.589-0.0631 0.0529-8.1467 1.6698-0.0182 1.6698 0.0143 0.0119 1.5768c0.01 1.2997 0.0542 1.5103 0.253 1.1982 0.1326-0.20823 0.42679-0.66364 0.65374-1.012 0.63183-0.96986 1.8901-1.5688 3.383-1.6103l1.2645-0.0351v3.036l-1.4326 0.12806c-2.0788 0.18583-2.5726 0.3294-3.3424 0.97173l-0.68996 0.57575-0.119 11.582h-3.4277zm33.222 7.7038c-0.0737-0.30614-0.71841-2.697-1.4327-5.3131-1.4819-5.4275-2.7537-10.413-2.7537-10.413 1.1261-0.0153 1.7524-0.0107 3.1994-0.0107l0.75326 3.036c0.41428 1.6698 1.0842 4.4478 1.4886 6.1733 0.40444 1.7255 0.80332 3.2611 0.88642 3.4124 0.0905 0.1649 0.49708-0.97081 1.0143-2.8336 0.47478-1.7099 1.2929-4.6117 1.8181-6.4485l0.95485-3.3396h3.1601l0.67161 2.3276c0.36938 1.2802 1.1956 4.171 1.836 6.4241 0.64039 2.253 1.2268 4.0291 1.3032 3.9468 0.0764-0.0823 0.42696-1.4247 0.77903-2.9832s1.0258-4.382 1.4971-6.2745l0.857-3.4408 3.1195-0.0206s-0.75887 3.0046-2.3562 8.9263c-0.39038 1.4472-0.96777 3.6053-1.2831 4.7958-0.31533 1.1905-0.81096 2.5732-0.81096 2.5732-1.3278 0.0237-2.3037 0.0184-3.747 0.0183l-1.7109-5.9701c-0.94099-3.2835-1.771-5.902-1.8445-5.8188-0.0734 0.0832-0.61024 1.8362-1.1928 3.8956-0.5826 2.0594-1.342 4.678-1.6875 5.8191l-0.62821 2.0746h-3.7569z"
       display="inline"
       stroke-width=".2024"
       id="path16" />
    <rect
       x="91.156"
       y="147.28"
       width="4.1257"
       height="4.2997"
       ry="1.6901"
       display="inline"
       fill-rule="evenodd"
       stroke-width=".2024"
       id="rect18" />
  </g>
  <g
     transform="translate(-85.223 -118.09)"
     display="none"
     stroke-width=".2024"
     id="g26">
    <path
       d="m22.363 166.84v-6.491h-12.954v-12.954h12.954v-12.982l8.2479 0.0777c9.2126 0.0868 9.3322 0.10197 12.296 1.5617 2.6816 1.3208 5.1383 3.9109 6.5349 6.8898 1.7707 3.7768 2.5526 8.7854 2.1091 13.51-0.83226 8.8682-4.7351 14.436-11.478 16.374-1.0373 0.29813-2.4176 0.36038-9.4623 0.42675l-8.2479 0.0777zm12.954-12.968v-6.4769h-12.954v12.954h12.954zm63.263 11.035c-3.3101-0.94494-5.0604-4.461-4.6874-9.4158 0.20485-2.7208 0.9465-4.6437 2.2793-5.9094 2.0929-1.9876 6.2213-1.9969 7.7479-0.0173 0.23884 0.3097 0.60948 0.79079 0.82364 1.0691l0.38938 0.50601 7e-3 -1.3744 7e-3 -1.3744 1.6698 0.0101 1.6536 0.0425 0.0162 8.1611v8.0961l-1.6698 0.0588-1.6698 0.0587-0.014-2.7488-0.38938 0.50601c-0.21416 0.2783-0.57578 0.7485-0.80361 1.0449-0.93993 1.2228-3.4624 1.8284-5.3598 1.2868zm4.3548-2.9673c0.42366-0.12693 1.0718-0.54185 1.4403-0.92205l0.67-0.69127v-3.6826c0-3.3631-0.0351-3.7306-0.4048-4.2363-0.61191-0.83692-1.8594-1.3692-3.2092-1.3692-1.485 0-2.5837 0.54937-3.3181 1.659-0.54596 0.82501-0.55683 0.90127-0.55683 3.907 0 3.0229 8e-3 3.0776 0.56999 3.9269 0.94949 1.4348 2.8564 1.9933 4.8086 1.4084zm14.409 2.9854c-2.6614-0.66917-4.2763-2.8816-4.7432-6.4984-0.80077-6.2034 2.2501-10.837 6.8243-10.365 1.7059 0.17606 3.0641 1.073 4.0771 2.6926 0.19078 0.30497 0.24359-0.6181 0.25301-4.4216l0.0119-4.8071h3.4442l-0.0523 11.588-0.0522 11.588-1.6604 0.0587-1.6604 0.0586-0.06-1.3261-0.0601-1.3261-0.70841 0.96384c-1.2173 1.6562-3.3962 2.3531-5.6136 1.7956zm4.8907-3.2774c1.3555-0.70344 1.5326-1.2978 1.5317-5.1413-6e-4 -2.9262-0.0487-3.4213-0.38502-3.973-0.54808-0.89882-1.8976-1.4958-3.372-1.4917-1.6915 5e-3 -2.6522 0.57548-3.3769 2.0064-0.51631 1.0193-0.55661 1.2768-0.55661 3.5564 0 2.2813 0.0399 2.5356 0.55661 3.5488 0.75356 1.4775 1.851 2.0804 3.5968 1.9758 0.69578-0.0417 1.5561-0.24821 2.0055-0.4814zm25.618 3.2435c-1.8279-0.50631-2.8706-1.3959-3.789-3.2328-1.1758-2.3517-1.3255-6.403-0.34486-9.3328 0.52644-1.5727 1.7108-2.9825 3.0638-3.6469 1.5363-0.75437 3.7458-0.81007 5.036-0.12696 0.81887 0.43355 2.0434 1.7378 2.2324 2.0659 0.11487 0.19934 0.2943 0.26429 0.2943 0.26429s-0.0159-0.5857-0.0159-1.2604v-1.2144h3.4408v16.395h-3.4408v-1.2144c0-0.67467-0.0237-1.255-0.0237-1.255s-0.78548 0.88604-1.0389 1.1805c-1.2215 1.3912-3.382 1.9412-5.4143 1.3783zm5.1205-3.3026c1.1832-0.73128 1.3564-1.3718 1.3561-5.0147-1.9e-4 -2.6485-0.062-3.3314-0.3542-3.9163-0.80991-1.6213-3.7527-2.1733-5.5407-1.0393-1.3774 0.87353-1.68 1.6592-1.7631 4.5775-0.0982 3.4514 0.36907 4.7067 2.077 5.5791 1.0861 0.55479 3.1747 0.46263 4.2249-0.18642zm-87.81 2.9602s-0.0732-5.0803-0.0443-10.98l0.0526-10.727 4.7565 4e-3c4.3355 4e-3 4.8818 0.0437 6.1733 0.45085 2.5699 0.81028 4.5108 2.7984 5.3638 5.4942 1.1824 3.7369 0.84808 8.9737-0.74911 11.736-1.2312 2.1292-3.074 3.4706-5.4631 3.9768-0.91622 0.21655-10.09 0.046-10.09 0.046zm10.46-3.5509c1.3155-0.68514 2.2819-2.0334 2.618-3.6523 0.13812-0.66532 0.19688-2.3602 0.14779-4.2624-0.0916-3.5505-0.33888-4.3806-1.7145-5.7562-1.0835-1.0835-2.1184-1.3486-5.2641-1.3486h-2.6964v15.585h2.9117c2.7935 0 2.9558-0.023 3.9974-0.56548zm10.902-4.3934v-8.1973h3.2384v16.395h-3.2384zm45.589-0.0631 0.0529-8.1467 1.6698-0.0182 1.6698 0.0143 0.0119 1.5768c0.01 1.2997 0.0542 1.5103 0.253 1.1982 0.1326-0.20823 0.42679-0.66364 0.65374-1.012 0.63183-0.96986 1.8901-1.5688 3.383-1.6103l1.2645-0.0351v3.036l-1.4326 0.12806c-2.0788 0.18583-2.5726 0.3294-3.3424 0.97173l-0.68996 0.57575-0.119 11.582h-3.4277zm33.222 7.7038c-0.0737-0.30614-0.71841-2.697-1.4327-5.3131-1.4819-5.4275-2.7537-10.413-2.7537-10.413 1.1261-0.0153 1.7524-0.0107 3.1994-0.0107l0.75326 3.036c0.41428 1.6698 1.0842 4.4478 1.4886 6.1733 0.40444 1.7255 0.80332 3.2611 0.88642 3.4124 0.0905 0.1649 0.49708-0.97081 1.0143-2.8336 0.47478-1.7099 1.2929-4.6117 1.8181-6.4485l0.95485-3.3396h3.1601l0.67161 2.3276c0.36938 1.2802 1.1956 4.171 1.836 6.4241 0.64039 2.253 1.2268 4.0291 1.3032 3.9468 0.0764-0.0823 0.42696-1.4247 0.77903-2.9832s1.0258-4.382 1.4971-6.2745l0.857-3.4408 3.1195-0.0206s-0.75887 3.0046-2.3562 8.9263c-0.39038 1.4472-0.96777 3.6053-1.2831 4.7958-0.31533 1.1905-0.81096 2.5732-0.81096 2.5732-1.3278 0.0237-2.3037 0.0184-3.747 0.0183l-1.7109-5.9701c-0.94099-3.2835-1.771-5.902-1.8445-5.8188-0.0734 0.0832-0.61024 1.8362-1.1928 3.8956-0.5826 2.0594-1.342 4.678-1.6875 5.8191l-0.62821 2.0746h-3.7569z"
       display="inline"
       id="path22" />
    <rect
       x="86.015"
       y="141.1"
       width="4.1257"
       height="4.2997"
       ry="1.6901"
       display="inline"
       fill-rule="evenodd"
       id="rect24" />
  </g>
  <g
     transform="translate(-85.223 -118.09)"
     display="none"
     fill="#fff"
     stroke-width=".2024"
     id="g32">
    <path
       d="m38.217 213.62v-6.491h-12.954v-12.954h12.954v-12.982l8.2479 0.0777c9.2126 0.0868 9.3322 0.10197 12.296 1.5617 2.6816 1.3208 5.1383 3.9109 6.5349 6.8898 1.7707 3.7768 2.5526 8.7854 2.1091 13.51-0.83226 8.8682-4.7351 14.436-11.478 16.374-1.0373 0.29813-2.4176 0.36038-9.4623 0.42675l-8.2479 0.0777zm12.954-12.968v-6.4769h-12.954v12.954h12.954zm63.263 11.035c-3.3101-0.94494-5.0604-4.461-4.6874-9.4158 0.20486-2.7208 0.9465-4.6437 2.2793-5.9094 2.0929-1.9876 6.2213-1.9969 7.7479-0.0173 0.23884 0.3097 0.60948 0.79079 0.82364 1.0691l0.38938 0.50601 7e-3 -1.3744 7e-3 -1.3744 1.6698 0.0101 1.6536 0.0425 0.0162 8.1611v8.0961l-1.6698 0.0588-1.6698 0.0587-0.014-2.7488-0.38938 0.50601c-0.21416 0.2783-0.57578 0.7485-0.80361 1.0449-0.93993 1.2228-3.4624 1.8284-5.3598 1.2868zm4.3548-2.9673c0.42366-0.12693 1.0718-0.54185 1.4403-0.92205l0.67-0.69127v-3.6826c0-3.3631-0.0351-3.7306-0.4048-4.2363-0.61191-0.83692-1.8594-1.3692-3.2092-1.3692-1.485 0-2.5837 0.54937-3.3181 1.659-0.54596 0.82501-0.55683 0.90127-0.55683 3.907 0 3.0229 8e-3 3.0776 0.56999 3.9269 0.94949 1.4348 2.8564 1.9933 4.8086 1.4084zm14.409 2.9854c-2.6614-0.66917-4.2763-2.8816-4.7432-6.4984-0.80077-6.2034 2.2501-10.837 6.8243-10.365 1.7059 0.17606 3.0641 1.073 4.0771 2.6926 0.19078 0.30497 0.24359-0.6181 0.25301-4.4216l0.0119-4.8071h3.4442l-0.0523 11.588-0.0522 11.588-1.6604 0.0587-1.6604 0.0586-0.06-1.3261-0.0601-1.3261-0.70841 0.96384c-1.2173 1.6562-3.3962 2.3531-5.6136 1.7956zm4.8907-3.2774c1.3555-0.70344 1.5326-1.2978 1.5317-5.1413-6e-4 -2.9262-0.0487-3.4213-0.38502-3.973-0.54808-0.89882-1.8976-1.4958-3.372-1.4917-1.6915 5e-3 -2.6522 0.57548-3.3769 2.0064-0.51631 1.0193-0.55661 1.2768-0.55661 3.5564 0 2.2813 0.0399 2.5356 0.55661 3.5488 0.75356 1.4775 1.851 2.0804 3.5968 1.9758 0.69578-0.0417 1.5561-0.24821 2.0055-0.4814zm25.618 3.2435c-1.8279-0.50631-2.8706-1.3959-3.789-3.2328-1.1758-2.3517-1.3255-6.403-0.34486-9.3328 0.52644-1.5727 1.7108-2.9825 3.0638-3.6469 1.5363-0.75437 3.7458-0.81007 5.036-0.12696 0.81887 0.43355 2.0434 1.7378 2.2324 2.0659 0.11487 0.19934 0.2943 0.26429 0.2943 0.26429s-0.0159-0.5857-0.0159-1.2604v-1.2144h3.4408v16.395h-3.4408v-1.2144c0-0.67467-0.0237-1.255-0.0237-1.255s-0.78548 0.88604-1.0389 1.1805c-1.2215 1.3912-3.382 1.9412-5.4143 1.3783zm5.1205-3.3026c1.1832-0.73128 1.3564-1.3718 1.3561-5.0147-1.9e-4 -2.6485-0.062-3.3314-0.3542-3.9163-0.80991-1.6213-3.7527-2.1733-5.5407-1.0393-1.3774 0.87353-1.68 1.6592-1.7631 4.5775-0.0982 3.4514 0.36907 4.7067 2.077 5.5791 1.0861 0.55479 3.1747 0.46263 4.2249-0.18642zm-87.81 2.9602s-0.07319-5.0803-0.04425-10.98l0.05262-10.727 4.7565 4e-3c4.3355 4e-3 4.8818 0.0437 6.1733 0.45085 2.5699 0.81028 4.5108 2.7984 5.3638 5.4942 1.1824 3.7369 0.84809 8.9737-0.7491 11.736-1.2312 2.1292-3.074 3.4706-5.4631 3.9768-0.91622 0.21655-10.09 0.046-10.09 0.046zm10.46-3.5509c1.3155-0.68514 2.2819-2.0334 2.618-3.6523 0.13812-0.66532 0.19688-2.3602 0.14779-4.2624-0.09164-3.5505-0.33888-4.3806-1.7145-5.7562-1.0835-1.0835-2.1184-1.3486-5.2641-1.3486h-2.6964v15.585h2.9117c2.7935 0 2.9558-0.023 3.9975-0.56548zm10.902-4.3934v-8.1973h3.2384v16.395h-3.2384zm45.589-0.0631 0.0529-8.1467 1.6698-0.0182 1.6698 0.0143 0.0119 1.5768c0.01 1.2997 0.0542 1.5103 0.253 1.1982 0.1326-0.20823 0.42679-0.66364 0.65374-1.012 0.63183-0.96986 1.8901-1.5688 3.383-1.6103l1.2645-0.0351v3.036l-1.4326 0.12806c-2.0788 0.18583-2.5726 0.3294-3.3424 0.97173l-0.68996 0.57575-0.119 11.582h-3.4277zm33.222 7.7038c-0.0737-0.30614-0.71841-2.697-1.4327-5.3131-1.4819-5.4275-2.7537-10.413-2.7537-10.413 1.1261-0.0153 1.7524-0.0107 3.1994-0.0107l0.75326 3.036c0.41428 1.6698 1.0842 4.4478 1.4886 6.1733 0.40444 1.7255 0.80332 3.2611 0.88642 3.4124 0.0905 0.1649 0.49708-0.97081 1.0143-2.8336 0.47478-1.7099 1.2929-4.6117 1.8181-6.4485l0.95485-3.3396h3.1601l0.67161 2.3276c0.36938 1.2802 1.1956 4.171 1.836 6.4241 0.64039 2.253 1.2268 4.0291 1.3032 3.9468 0.0764-0.0823 0.42696-1.4247 0.77903-2.9832s1.0258-4.382 1.4971-6.2745l0.857-3.4408 3.1195-0.0206s-0.75887 3.0046-2.3562 8.9263c-0.39038 1.4472-0.96777 3.6053-1.2831 4.7958-0.31533 1.1905-0.81096 2.5732-0.81096 2.5732-1.3278 0.0237-2.3037 0.0184-3.747 0.0183l-1.7109-5.9701c-0.94099-3.2835-1.771-5.902-1.8445-5.8188-0.0734 0.0832-0.61024 1.8362-1.1928 3.8956-0.5826 2.0594-1.342 4.678-1.6875 5.8191l-0.62821 2.0746h-3.7569z"
       display="inline"
       id="path28" />
    <rect
       x="101.87"
       y="187.89"
       width="4.1257"
       height="4.2997"
       ry="1.6901"
       display="inline"
       fill-rule="evenodd"
       id="rect30" />
  </g>
  <g
     transform="translate(-85.223 -118.09)"
     display="none"
     id="g44">
    <text
       transform="scale(1.0144 .98581)"
       x="13.521272"
       y="212.25598"
       fill="#ffffff"
       font-family="sans-serif"
       font-size="17.177px"
       stroke-width=".26839"
       style="line-height:1.25"
       xml:space="preserve"
       id="text36"><tspan
         x="13.521272"
         y="212.25598"
         fill="#ffffff"
         font-size="17.177px"
         stroke-width=".26839"
         id="tspan34">Outsource and grow</tspan></text>
    <path
       d="m27.503 173.01v-6.491h-12.954v-12.954h12.954v-12.982l8.2479 0.0777c9.2126 0.0868 9.3322 0.10197 12.296 1.5617 2.6816 1.3208 5.1383 3.9109 6.5349 6.8898 1.7707 3.7768 2.5526 8.7854 2.1091 13.51-0.83226 8.8682-4.7351 14.436-11.478 16.374-1.0373 0.29813-2.4176 0.36038-9.4623 0.42675l-8.2479 0.0777zm12.954-12.968v-6.4769h-12.954v12.954h12.954zm63.263 11.035c-3.3101-0.94494-5.0605-4.461-4.6874-9.4158 0.20486-2.7208 0.9465-4.6437 2.2793-5.9094 2.0929-1.9876 6.2213-1.9969 7.7479-0.0173 0.23884 0.3097 0.60948 0.79079 0.82364 1.0691l0.38938 0.50601 7e-3 -1.3744 7e-3 -1.3744 1.6698 0.0101 1.6536 0.0425 0.0162 8.1611v8.0961l-1.6698 0.0588-1.6698 0.0587-0.014-2.7488-0.38938 0.50601c-0.21416 0.2783-0.57578 0.7485-0.80361 1.0449-0.93993 1.2228-3.4624 1.8284-5.3598 1.2868zm4.3548-2.9673c0.42366-0.12693 1.0718-0.54185 1.4403-0.92205l0.67-0.69127v-3.6826c0-3.3631-0.0351-3.7306-0.4048-4.2363-0.61191-0.83692-1.8594-1.3692-3.2092-1.3692-1.485 0-2.5837 0.54937-3.3181 1.659-0.54596 0.82501-0.55683 0.90127-0.55683 3.907 0 3.0229 8e-3 3.0776 0.56999 3.9269 0.94949 1.4348 2.8564 1.9933 4.8086 1.4084zm14.409 2.9854c-2.6614-0.66917-4.2763-2.8816-4.7432-6.4984-0.80077-6.2034 2.2501-10.837 6.8243-10.365 1.7059 0.17606 3.0641 1.073 4.0771 2.6926 0.19078 0.30497 0.24359-0.6181 0.25301-4.4216l0.0119-4.8071h3.4442l-0.0523 11.588-0.0522 11.588-1.6604 0.0587-1.6604 0.0586-0.06-1.3261-0.0601-1.3261-0.70841 0.96384c-1.2173 1.6562-3.3962 2.3531-5.6136 1.7956zm4.8907-3.2774c1.3555-0.70344 1.5326-1.2978 1.5317-5.1413-6e-4 -2.9262-0.0487-3.4213-0.38502-3.973-0.54808-0.89882-1.8976-1.4958-3.372-1.4917-1.6915 5e-3 -2.6522 0.57548-3.3769 2.0064-0.51631 1.0193-0.55661 1.2768-0.55661 3.5564 0 2.2813 0.0399 2.5356 0.55661 3.5488 0.75356 1.4775 1.851 2.0804 3.5968 1.9758 0.69578-0.0417 1.5561-0.24821 2.0055-0.4814zm25.618 3.2435c-1.8279-0.50631-2.8706-1.3959-3.789-3.2328-1.1758-2.3517-1.3255-6.403-0.34486-9.3328 0.52644-1.5727 1.7108-2.9825 3.0638-3.6469 1.5363-0.75437 3.7458-0.81007 5.036-0.12696 0.81887 0.43355 2.0434 1.7378 2.2324 2.0659 0.11487 0.19934 0.2943 0.26429 0.2943 0.26429s-0.0159-0.5857-0.0159-1.2604v-1.2144h3.4408v16.395h-3.4408v-1.2144c0-0.67467-0.0237-1.255-0.0237-1.255s-0.78548 0.88604-1.0389 1.1805c-1.2215 1.3912-3.382 1.9412-5.4143 1.3783zm5.1205-3.3026c1.1832-0.73128 1.3564-1.3718 1.3561-5.0147-1.9e-4 -2.6485-0.062-3.3314-0.3542-3.9163-0.80991-1.6213-3.7527-2.1733-5.5407-1.0393-1.3774 0.87353-1.68 1.6592-1.7631 4.5775-0.0982 3.4514 0.36907 4.7067 2.077 5.5791 1.0861 0.55479 3.1747 0.46263 4.2249-0.18642zm-87.81 2.9602s-0.07319-5.0803-0.04425-10.98l0.05262-10.727 4.7565 4e-3c4.3355 4e-3 4.8818 0.0437 6.1733 0.45085 2.5699 0.81028 4.5108 2.7984 5.3638 5.4942 1.1824 3.7369 0.84809 8.9737-0.7491 11.736-1.2312 2.1292-3.074 3.4706-5.4631 3.9768-0.91622 0.21655-10.09 0.046-10.09 0.046zm10.46-3.5509c1.3155-0.68514 2.2819-2.0334 2.618-3.6523 0.13812-0.66532 0.19688-2.3602 0.14779-4.2624-0.09164-3.5505-0.33888-4.3806-1.7145-5.7562-1.0835-1.0835-2.1184-1.3486-5.2641-1.3486h-2.6964v15.585h2.9117c2.7935 0 2.9558-0.023 3.9975-0.56548zm10.902-4.3934v-8.1973h3.2384v16.395h-3.2384zm45.589-0.0631 0.0529-8.1467 1.6698-0.0182 1.6698 0.0143 0.0119 1.5768c0.01 1.2997 0.0542 1.5103 0.253 1.1982 0.1326-0.20823 0.42679-0.66364 0.65374-1.012 0.63183-0.96986 1.8901-1.5688 3.383-1.6103l1.2645-0.0351v3.036l-1.4326 0.12806c-2.0788 0.18583-2.5726 0.3294-3.3424 0.97173l-0.68996 0.57575-0.119 11.582h-3.4277zm33.222 7.7038c-0.0737-0.30614-0.71841-2.697-1.4327-5.3131-1.4819-5.4275-2.7537-10.413-2.7537-10.413 1.1261-0.0153 1.7524-0.0107 3.1994-0.0107l0.75326 3.036c0.41428 1.6698 1.0842 4.4478 1.4886 6.1733 0.40444 1.7255 0.80332 3.2611 0.88642 3.4124 0.0905 0.1649 0.49708-0.97081 1.0143-2.8336 0.47478-1.7099 1.2929-4.6117 1.8181-6.4485l0.95485-3.3396h3.1601l0.67161 2.3276c0.36938 1.2802 1.1956 4.171 1.836 6.4241 0.64039 2.253 1.2268 4.0291 1.3032 3.9468 0.0764-0.0823 0.42696-1.4247 0.77903-2.9832s1.0258-4.382 1.4971-6.2745l0.857-3.4408 3.1195-0.0206s-0.75887 3.0046-2.3562 8.9263c-0.39038 1.4472-0.96777 3.6053-1.2831 4.7958-0.31533 1.1905-0.81096 2.5732-0.81096 2.5732-1.3278 0.0237-2.3037 0.0184-3.747 0.0183l-1.7109-5.9701c-0.94099-3.2835-1.771-5.902-1.8445-5.8188-0.0734 0.0832-0.61024 1.8362-1.1928 3.8956-0.5826 2.0594-1.342 4.678-1.6875 5.8191l-0.62821 2.0746h-3.7569z"
       display="inline"
       fill="#fff"
       stroke-width=".2024"
       id="path38" />
    <rect
       x="91.156"
       y="147.28"
       width="4.1257"
       height="4.2997"
       ry="1.6901"
       display="inline"
       fill="#fff"
       fill-rule="evenodd"
       stroke-width=".2024"
       id="rect40" />
    <path
       transform="scale(.26458)"
       d="m104.62 654.16v-23.98h49.118v-50.1h-49.118v-48.385l31.19 0.49273c35.398 0.55922 38.614 1.1139 50.079 8.6382 23.693 15.549 34.213 54.121 24.799 90.928-4.8974 19.148-15.718 33.317-31.106 40.729-8.6169 4.1507-12.906 4.6361-45.737 5.1761l-29.225 0.48068z"
       fill="#fff"
       stroke-width=".98235"
       id="path42" />
  </g>
  <g
     transform="translate(-85.223 -118.09)"
     display="none"
     id="g50">
    <text
       transform="scale(1.0144 .98581)"
       x="17.475763"
       y="160.83618"
       display="inline"
       fill="#000000"
       font-family="sans-serif"
       font-size="17.177px"
       stroke-width=".26839"
       style="line-height:1.25"
       xml:space="preserve"
       id="text48"><tspan
         x="17.475763"
         y="160.83618"
         font-size="17.177px"
         stroke-width=".26839"
         id="tspan46">Outsource and grow</tspan></text>
  </g>
  <g
     transform="translate(-85.223 -118.09)"
     display="none"
     id="g56">
    <text
       transform="scale(1.0144 .98581)"
       x="17.475763"
       y="160.83618"
       display="inline"
       fill="#ffffff"
       font-family="sans-serif"
       font-size="17.177px"
       stroke-width=".26839"
       style="line-height:1.25"
       xml:space="preserve"
       id="text54"><tspan
         x="17.475763"
         y="160.83618"
         fill="#ffffff"
         font-size="17.177px"
         stroke-width=".26839"
         id="tspan52">Outsource and grow</tspan></text>
  </g>
  <g
     transform="translate(-85.223 -118.09)"
     display="none"
     id="g60">
    <path
       d="m98.177 150.51v-6.491h-12.954v-12.954h12.954v-12.982l8.2479 0.0777c9.2126 0.0868 9.3322 0.10197 12.296 1.5617 2.6816 1.3208 5.1383 3.9109 6.5349 6.8898 1.7707 3.7768 2.5526 8.7854 2.1091 13.51-0.83226 8.8682-4.7351 14.436-11.478 16.374-1.0373 0.29813-2.4176 0.36038-9.4623 0.42675l-8.2479 0.0777zm12.954-12.968v-6.4769h-12.954v12.954h12.954z"
       display="inline"
       stroke-width=".053552"
       id="path58" />
  </g>
  <g
     transform="translate(-85.223 -118.09)"
     id="g64"
     style="fill:#000000">
    <path
       d="m98.177 150.51v-6.491h-12.954v-12.954h12.954v-12.982l8.2479 0.0777c9.2126 0.0868 9.3322 0.10197 12.296 1.5617 2.6816 1.3208 5.1383 3.9109 6.5349 6.8898 1.7707 3.7768 2.5526 8.7854 2.1091 13.51-0.83226 8.8682-4.7351 14.436-11.478 16.374-1.0373 0.29813-2.4176 0.36038-9.4623 0.42675l-8.2479 0.0777zm12.954-12.968v-6.4769h-12.954v12.954h12.954z"
       fill="#fff"
       stroke-width=".053552"
       id="path62"
       style="fill:#000000" />
  </g>
</svg>
