<svg width="39" height="53" viewBox="0 0 39 53" fill="none" xmlns="http://www.w3.org/2000/svg">
<circle cx="19.1535" cy="37.4558" r="14.8972" fill="#0E5371"/>
<circle cx="19.1535" cy="37.4558" r="10.2152" fill="#E8F5FE"/>
<path d="M1 6.83972C0.447716 5.88313 0.775466 4.65995 1.73205 4.10767L7.11459 1.00006C8.07117 0.447773 9.29435 0.775522 9.84664 1.73211L21.6157 22.1167L12.769 27.2243L1 6.83972Z" fill="#0E5371"/>
<path d="M37.2154 6.83972C37.7677 5.88313 37.4399 4.65995 36.4833 4.10767L31.1008 1.00006C30.1442 0.447772 28.921 0.775521 28.3688 1.73211L16.5997 22.1167L25.4464 27.2243L37.2154 6.83972Z" fill="#0E5371"/>
<path d="M23.0126 43.9226H15.4286V42.1946L18.9966 39.0106C19.562 38.4986 19.994 38.0133 20.2926 37.5546C20.602 37.0853 20.7566 36.5946 20.7566 36.0826V35.8746C20.7566 35.3306 20.5913 34.9039 20.2606 34.5946C19.9406 34.2853 19.5033 34.1306 18.9486 34.1306C18.6393 34.1306 18.3673 34.1786 18.1326 34.2746C17.9086 34.3599 17.7113 34.4826 17.5406 34.6426C17.37 34.8026 17.226 34.9893 17.1086 35.2026C17.002 35.4159 16.9166 35.6453 16.8526 35.8906L15.2686 35.2826C15.386 34.9306 15.546 34.5946 15.7486 34.2746C15.9513 33.9439 16.2073 33.6506 16.5166 33.3946C16.826 33.1386 17.1886 32.9359 17.6046 32.7866C18.0313 32.6373 18.5273 32.5626 19.0926 32.5626C19.658 32.5626 20.1646 32.6479 20.6126 32.8186C21.0606 32.9786 21.434 33.2079 21.7326 33.5066C22.042 33.7946 22.2766 34.1413 22.4366 34.5466C22.5966 34.9519 22.6766 35.3946 22.6766 35.8746C22.6766 36.3226 22.6073 36.7386 22.4686 37.1226C22.33 37.5066 22.138 37.8693 21.8926 38.2106C21.6473 38.5519 21.3593 38.8773 21.0286 39.1866C20.7086 39.4959 20.3673 39.8106 20.0046 40.1306L17.3806 42.3866H23.0126V43.9226Z" fill="#0E5371"/>
</svg>
