<svg width="39" height="53" viewBox="0 0 39 53" fill="none" xmlns="http://www.w3.org/2000/svg">
<circle cx="19.1535" cy="37.8088" r="14.8972" fill="#0E5371"/>
<circle cx="19.1535" cy="37.8088" r="10.2152" fill="#E8F5FE"/>
<path d="M1 7.19275C0.447716 6.23616 0.775466 5.01298 1.73205 4.46069L7.11459 1.35308C8.07117 0.8008 9.29435 1.12855 9.84664 2.08513L21.6157 22.4697L12.769 27.5773L1 7.19275Z" fill="#0E5371"/>
<path d="M37.2154 7.19275C37.7677 6.23616 37.4399 5.01298 36.4833 4.46069L31.1008 1.35308C30.1442 0.800799 28.921 1.12855 28.3688 2.08513L16.5997 22.4697L25.4464 27.5773L37.2154 7.19275Z" fill="#0E5371"/>
<path d="M18.5486 37.6996C19.242 37.6996 19.754 37.5556 20.0846 37.2676C20.4153 36.969 20.5806 36.5903 20.5806 36.1316V36.0196C20.5806 35.5076 20.4206 35.1183 20.1006 34.8516C19.7806 34.5743 19.3486 34.4356 18.8046 34.4356C18.2713 34.4356 17.818 34.5583 17.4446 34.8036C17.0713 35.0383 16.7566 35.369 16.5006 35.7956L15.3006 34.7556C15.4713 34.5103 15.6633 34.2756 15.8766 34.0516C16.09 33.8276 16.3406 33.6356 16.6286 33.4756C16.9166 33.305 17.242 33.1716 17.6046 33.0756C17.9673 32.969 18.3833 32.9156 18.8526 32.9156C19.3753 32.9156 19.8606 32.9796 20.3086 33.1076C20.7566 33.2356 21.1406 33.4276 21.4606 33.6836C21.7806 33.929 22.0313 34.233 22.2126 34.5956C22.394 34.9476 22.4846 35.3476 22.4846 35.7956C22.4846 36.1476 22.426 36.4676 22.3086 36.7556C22.202 37.0436 22.0473 37.2996 21.8446 37.5236C21.6526 37.737 21.4233 37.913 21.1566 38.0516C20.9006 38.1903 20.6286 38.2916 20.3406 38.3556V38.4356C20.6606 38.4996 20.9593 38.6063 21.2366 38.7556C21.5246 38.8943 21.7753 39.081 21.9886 39.3156C22.202 39.5396 22.3673 39.8116 22.4846 40.1316C22.6126 40.441 22.6766 40.7983 22.6766 41.2036C22.6766 41.6943 22.5806 42.1423 22.3886 42.5476C22.1966 42.9423 21.9246 43.2836 21.5726 43.5716C21.2313 43.8596 20.8153 44.0836 20.3246 44.2436C19.834 44.393 19.29 44.4676 18.6926 44.4676C18.17 44.4676 17.7113 44.409 17.3166 44.2916C16.922 44.185 16.57 44.041 16.2606 43.8596C15.962 43.6676 15.6953 43.4543 15.4606 43.2196C15.2366 42.9743 15.0393 42.7236 14.8686 42.4676L16.1966 41.4276C16.3353 41.6516 16.4793 41.8596 16.6286 42.0516C16.7886 42.233 16.9646 42.393 17.1566 42.5316C17.3593 42.6596 17.5833 42.761 17.8286 42.8356C18.0846 42.9103 18.3726 42.9476 18.6926 42.9476C19.3753 42.9476 19.898 42.7876 20.2606 42.4676C20.6233 42.137 20.8046 41.6836 20.8046 41.1076V40.9956C20.8046 40.4196 20.6126 39.9823 20.2286 39.6836C19.8446 39.385 19.3006 39.2356 18.5966 39.2356H17.4126V37.6996H18.5486Z" fill="#0E5371"/>
</svg>
